<?xml version="1.0" encoding="UTF-8" standalone="no"?>
<!-- Created with Inkscape (http://www.inkscape.org/) -->

<svg
   width="195mm"
   height="195mm"
   viewBox="0 0 195 195"
   version="1.1"
   id="svg1"
   sodipodi:docname="PIWO.svg"
   inkscape:version="1.3 (0e150ed6c4, 2023-07-21)"
   xmlns:inkscape="http://www.inkscape.org/namespaces/inkscape"
   xmlns:sodipodi="http://sodipodi.sourceforge.net/DTD/sodipodi-0.dtd"
   xmlns="http://www.w3.org/2000/svg"
   xmlns:svg="http://www.w3.org/2000/svg">
  <sodipodi:namedview
     id="namedview1"
     pagecolor="#505050"
     bordercolor="#eeeeee"
     borderopacity="1"
     inkscape:showpageshadow="0"
     inkscape:pageopacity="0"
     inkscape:pagecheckerboard="0"
     inkscape:deskcolor="#505050"
     inkscape:document-units="mm"
     inkscape:zoom="0.69219276"
     inkscape:cx="396.56584"
     inkscape:cy="457.24258"
     inkscape:window-width="1920"
     inkscape:window-height="991"
     inkscape:window-x="-9"
     inkscape:window-y="-9"
     inkscape:window-maximized="1"
     inkscape:current-layer="layer1" />
  <defs
     id="defs1">
    <clipPath
       clipPathUnits="userSpaceOnUse"
       id="clipPath8">
      <path
         id="path9"
         style="fill:#ff0000;fill-opacity:1;fill-rule:nonzero;stroke:none;stroke-width:0.264583"
         d="m 115.50871,88.3729 v 29.41474 c 1.84719,0.77853 3.50156,1.97122 5.18366,3.05098 0.23622,0.14501 0.47226,0.2901 0.70849,0.43511 3.115,1.91224 4.65409,4.21058 4.99608,6.28231 h 102.07025 v -2.03967 c -0.61528,-0.47621 -1.2334,-1.0337 -1.84691,-1.70274 -0.36937,-0.40279 -0.73033,-0.81304 -1.14929,-1.16634 -0.96721,-0.73778 -1.98435,-1.38729 -3.06441,-1.95595 -1.47891,-0.88928 -2.97524,-1.75308 -4.58215,-2.39675 -2.55484,-0.99047 -5.11337,-1.97343 -7.71374,-2.83962 -3.17491,-0.9657 -6.3437,-1.96199 -9.56479,-2.76469 -3.03494,-0.7474 -6.08981,-1.44017 -9.05681,-2.43344 -2.0265,-0.70563 -4.01499,-1.50609 -5.99034,-2.34405 -1.75954,-0.72881 -3.57068,-1.32939 -5.32577,-2.07015 -2.03302,-0.82055 -4.03509,-1.71402 -5.9862,-2.7156 -1.28655,-0.66245 -2.52703,-1.41049 -3.8256,-2.04742 -0.66848,-0.32856 -1.3683,-0.59334 -2.04277,-0.90331 -7.91966,-3.639726 -8.42116,-10.18429 -3.58686,-11.80341 z m 54.5977,0 c 0.47329,0.111683 0.95898,0.242271 1.46761,0.409794 1.33519,0.439759 2.62799,1.00696 3.89847,1.606622 1.40474,0.639916 2.7001,1.488866 4.08141,2.17351 1.64409,0.843478 3.3298,1.599803 5.04413,2.287714 1.77732,0.730607 3.5902,1.369936 5.37229,2.088764 1.78077,0.741984 3.55739,1.494366 5.38416,2.116664 2.63183,0.860933 5.3373,1.467372 8.0238,2.128552 3.4288,0.84996 6.80224,1.90662 10.18078,2.93419 2.88456,0.9444 5.71853,2.03056 8.5478,3.12694 2.22456,0.87822 4.31488,2.03544 6.36033,3.26388 V 88.3729 Z" />
    </clipPath>
    <clipPath
       clipPathUnits="userSpaceOnUse"
       id="clipPath17">
      <path
         id="path18"
         style="fill:#ff0000;fill-opacity:1;fill-rule:nonzero;stroke:none;stroke-width:0.264583"
         d="m 65.609949,110.02274 v 37.71088 c 1.426728,0.0248 2.851055,0.11855 4.274674,0.22944 2.444539,0.13999 4.851705,0.55835 7.210412,1.202 1.564529,0.48909 3.179853,0.77327 4.791956,1.05161 1.889882,0.33193 3.749207,0.80212 5.640999,1.12345 2.268035,0.46219 4.52955,0.9643 6.777881,1.51515 1.559637,0.30485 3.004005,1.02999 4.550627,1.37304 1.082773,0.19357 2.170072,0.31154 3.248902,0.53279 0.75034,0.19223 1.50135,0.37912 2.27014,0.47852 0.84023,0.0594 1.67348,0.17598 2.50838,0.28474 1.41705,0.2331 2.83344,0.47182 4.24005,0.76171 1.08305,0.21963 2.15746,0.47393 3.23391,0.72295 0.2625,0.0611 0.52912,0.0998 0.79581,0.13643 3.03305,0.41668 5.13262,1.54075 6.40478,2.93315 0.81843,0.1715 1.63158,0.36515 2.43758,0.59428 0.31151,0.10702 0.62333,0.21389 0.93483,0.32091 4.66702,1.60332 6.63963,4.58845 6.54637,7.19181 h 66.03524 v -58.16286 z m 0,49.56338 v 8.59948 H 110.0429 c -0.45412,-0.10235 -0.90627,-0.21334 -1.36323,-0.30489 -1.10502,-0.24344 -2.22806,-0.39963 -3.33985,-0.60823 -0.86401,-0.11432 -1.72448,-0.22161 -2.59364,-0.29611 -1.07944,-0.15425 -2.14944,-0.36025 -3.202384,-0.64647 -0.360704,-0.13019 -0.832004,-0.13148 -1.191144,-0.17828 -0.798689,-0.10404 -1.592421,-0.24792 -2.377114,-0.42944 -1.520418,-0.39595 -2.989006,-0.94592 -4.503084,-1.36115 -1.973763,-0.48908 -3.962718,-0.91788 -5.951059,-1.34256 -1.898941,-0.32909 -3.77113,-0.77295 -5.664771,-1.12758 -1.995689,-0.34903 -3.992896,-0.7138 -5.932972,-1.30896 -1.618327,-0.4634 -3.28272,-0.70784 -4.964036,-0.80564 -1.116108,-0.0879 -2.231808,-0.16379 -3.349667,-0.19017 z" />
    </clipPath>
  </defs>
  <g
     inkscape:label="Layer 1"
     inkscape:groupmode="layer"
     id="layer1">
    <g
       id="g20"
       transform="matrix(1.7226578,0,0,1.7226578,-154.36388,-108.92962)">
      <circle
         style="fill:#fddd32;fill-opacity:1;stroke:none;stroke-width:0.697916;stroke-linecap:round;stroke-linejoin:round;paint-order:markers fill stroke"
         id="path1"
         cx="146.20656"
         cy="119.83205"
         r="56.598587" />
      <ellipse
         style="fill:#ffff5d;fill-opacity:1;stroke:#fcfc5d;stroke-width:11.9602;stroke-linecap:round;stroke-linejoin:round;stroke-dasharray:none;stroke-opacity:1;paint-order:markers fill stroke"
         id="ellipse11"
         cx="-3.8031709"
         cy="171.37349"
         rx="29.167469"
         ry="20.463934"
         transform="matrix(0.67617543,-0.73674065,0.80560029,0.59245943,0,0)" />
      <ellipse
         style="fill:#ffffff;fill-opacity:1;stroke:#fcfcfc;stroke-width:8.72107;stroke-linecap:round;stroke-linejoin:round;stroke-dasharray:none;stroke-opacity:1;paint-order:markers fill stroke"
         id="path10"
         cx="25.109549"
         cy="167.28519"
         rx="21.15604"
         ry="15.00098"
         transform="matrix(0.74793278,-0.66377448,0.69879343,0.71532353,0,0)" />
      <path
         id="path11"
         style="fill:none;stroke:#fcb61b;stroke-width:18.324;stroke-linejoin:round;paint-order:markers fill stroke"
         d="m 182.37979,106.56234 c 4.76697,22.14025 -2.38037,31.59796 -13.84581,41.2526 -11.46544,9.65465 -25.39623,11.12611 -42.4928,4.49838 0,0 26.29276,7.47428 41.51318,-8.89973 16.86528,-11.57477 14.82543,-36.85125 14.82543,-36.85125 z"
         sodipodi:nodetypes="csccc" />
    </g>
  </g>
</svg>
