<?xml version="1.0" encoding="UTF-8" standalone="no"?>
<!-- Created with Inkscape (http://www.inkscape.org/) -->

<svg
   width="115mm"
   height="147mm"
   viewBox="0 0 115 147"
   version="1.1"
   id="svg1"
   xml:space="preserve"
   sodipodi:docname="drawing-2.svg"
   inkscape:version="1.3 (0e150ed6c4, 2023-07-21)"
   xmlns:inkscape="http://www.inkscape.org/namespaces/inkscape"
   xmlns:sodipodi="http://sodipodi.sourceforge.net/DTD/sodipodi-0.dtd"
   xmlns="http://www.w3.org/2000/svg"
   xmlns:svg="http://www.w3.org/2000/svg"><sodipodi:namedview
     id="namedview1"
     pagecolor="#505050"
     bordercolor="#eeeeee"
     borderopacity="1"
     inkscape:showpageshadow="0"
     inkscape:pageopacity="0"
     inkscape:pagecheckerboard="0"
     inkscape:deskcolor="#505050"
     inkscape:document-units="mm"
     inkscape:zoom="1"
     inkscape:cx="268"
     inkscape:cy="187.5"
     inkscape:window-width="1920"
     inkscape:window-height="991"
     inkscape:window-x="-9"
     inkscape:window-y="-9"
     inkscape:window-maximized="1"
     inkscape:current-layer="layer1" /><defs
     id="defs1"><clipPath
       clipPathUnits="userSpaceOnUse"
       id="clipPath17"><path
         id="path18"
         style="fill:#ff0000;fill-opacity:1;fill-rule:nonzero;stroke:none;stroke-width:0.264583"
         d="M 43.383914,29.33981 V 61.540946 H 87.38898 C 87.231643,61.32249 87.072994,61.104965 86.91821,60.884657 86.06659,59.604682 85.224858,58.32039 84.33077,57.069384 83.585579,55.939211 82.740995,54.882079 81.931433,53.798782 81.1867,52.828436 80.494428,51.820133 79.855073,50.77778 79.440442,50.112745 79.045345,49.434787 78.691322,48.735528 78.403077,48.278 78.290772,47.729918 78.028313,47.26223 c -0.153204,-0.317614 -0.162631,-0.252018 -0.466122,-0.700215 -0.003,-0.0048 -0.0057,-0.0097 -0.0088,-0.01447 -0.09704,0.151288 -0.191741,0.303821 -0.283705,0.458369 -0.35688,0.616585 -0.713861,1.233239 -1.098642,1.832965 -2.612218,4.071485 -6.518571,2.711219 -6.034257,-0.660943 -2.836061,3.859136 -7.258463,1.05043 -4.628658,-3.750675 0.04845,-0.08845 0.100984,-0.174585 0.150379,-0.262517 -2.472471,1.848482 -5.495703,-0.486553 -3.687112,-4.741312 0.155882,-0.36672 0.314931,-0.731594 0.485241,-1.091922 0.491331,-1.126035 1.022217,-2.238457 1.648478,-3.296439 0.615035,-1.027607 1.25471,-2.040882 1.923397,-3.03444 0.699153,-0.965602 1.462442,-1.885087 2.459281,-2.560053 0.05631,-0.03475 0.113313,-0.06717 0.170016,-0.100769 z m 30.630173,0 c 0.591574,0.473972 1.046218,1.107511 1.353923,1.840717 0.07478,0.27387 0.169196,0.54315 0.224274,0.821655 0.04416,0.223311 0.06726,0.448654 0.07648,0.674894 0.206325,-0.0249 0.412705,-0.04023 0.619083,-0.04031 0.359698,-1.43e-4 0.719402,0.03405 1.080555,0.09043 0.949394,0.15969 1.868088,0.438886 2.636531,1.04593 1.074589,0.936149 1.666327,1.812994 1.900658,3.261818 0.08846,1.043493 0.01328,2.07849 -0.288869,3.086116 -0.125368,0.386913 -0.271111,0.763455 -0.437701,1.129646 0.192871,0.229264 0.38212,0.476618 0.561724,0.762744 0.33247,-0.167037 0.701831,-0.254527 1.090888,-0.243396 1.162428,0.03327 2.483429,0.908511 3.403409,2.906284 0.590889,1.283123 1.257718,2.529991 1.942518,3.765145 1.011783,1.714929 2.051206,3.414369 3.101621,5.106149 0.502242,0.820679 1.048403,1.612289 1.605587,2.396236 V 29.33981 Z m -4.260721,3.398761 c -0.01058,0.01026 -0.03111,0.05591 -0.02946,0.07596 0.0036,0.04339 0.01233,0.08616 0.01913,0.129191 0.0085,-0.06709 0.01765,-0.134083 0.01654,-0.201539 -1.08e-4,-0.0067 -0.0027,-0.007 -0.0062,-0.0036 z" /></clipPath></defs><g
     inkscape:label="Layer 1"
     inkscape:groupmode="layer"
     id="layer1"><g
       id="g23"
       transform="matrix(0.99927228,0,0,0.99960976,-13.860371,-10.623251)"><circle
         style="fill:none;stroke:#ffffff;stroke-width:0.992455;stroke-linecap:round;stroke-linejoin:round;stroke-opacity:1;paint-order:markers fill stroke"
         id="path1"
         cx="58.111073"
         cy="54.867668"
         r="42.743652" /><circle
         style="fill:none;stroke:#ffffff;stroke-width:0.782;stroke-linecap:round;stroke-linejoin:round;stroke-dasharray:none;stroke-opacity:1;paint-order:markers fill stroke"
         id="circle1"
         cx="58.651638"
         cy="54.867668"
         r="33.659458" /><path
         style="fill:#ffffff;fill-opacity:1;stroke:#ffffff;stroke-width:4.13123;stroke-linecap:round;stroke-linejoin:round;stroke-opacity:1;paint-order:markers fill stroke"
         d="M 197.80406,365.15896 C 151.97429,358.01491 112.37495,332.91448 87.130721,295.00755 69.29437,268.22436 60.90784,240.19759 60.90784,207.37385 c 0,-32.93845 8.378495,-60.83846 26.393917,-87.89054 23.050533,-34.612838 58.770273,-58.847683 100.390933,-68.11243 8.54347,-1.901773 13.13124,-2.220759 31.93971,-2.220759 18.80847,0 23.39625,0.318986 31.93971,2.220759 65.38362,14.554375 113.20723,64.25833 125.03728,129.95354 2.36692,13.14406 2.36692,38.95479 0,52.09885 -4.16125,23.10848 -12.02832,42.90331 -24.46063,61.54695 -23.25599,34.87498 -57.33603,58.36062 -98.29457,67.73791 -10.56692,2.41925 -14.86647,2.84648 -31.15715,3.0959 -10.39423,0.15913 -21.59608,-0.13114 -24.89298,-0.64507 z m 48.89931,-31.10709 c 25.81559,-5.32149 47.21883,-16.68272 65.44398,-34.73888 19.3483,-19.16889 32.12602,-43.33882 36.66164,-69.34803 2.04014,-11.69906 2.04014,-33.48316 0,-45.18222 -7.96059,-45.64943 -41.61002,-85.004562 -85.0228,-99.43954 -41.48278,-13.79324 -85.44251,-6.888106 -119.50647,18.77191 -26.38501,19.87555 -44.16523,48.71258 -49.737726,80.66763 -2.040145,11.69906 -2.040145,33.48316 0,45.18222 5.318384,30.49788 22.789286,59.77307 46.807866,78.43383 19.34816,15.03216 40.02034,23.84372 63.6078,27.11296 9.69521,1.34377 31.91415,0.56676 41.74571,-1.45988 z"
         id="path2"
         transform="scale(0.26458333)" /><rect
         style="fill:#ffffff;fill-opacity:1;stroke:#ffffff;stroke-width:1.07;stroke-linecap:round;stroke-linejoin:round;stroke-opacity:1;paint-order:markers fill stroke"
         id="rect1"
         width="8.6003866"
         height="8.6003866"
         x="18.278494"
         y="123.26926"
         transform="rotate(-31.614174)" /><rect
         style="fill:#ffffff;fill-opacity:1;stroke:#ffffff;stroke-width:1.35911;stroke-linecap:round;stroke-linejoin:round;stroke-opacity:1;paint-order:markers fill stroke"
         id="rect2"
         width="58.892643"
         height="16.225071"
         x="136.13812"
         y="-27.828234"
         transform="matrix(0.54307509,0.83968413,-0.8335143,0.55249788,0,0)"
         ry="3.4900434" /><path
         style="fill:none;fill-opacity:1;stroke:#ffffff;stroke-width:4.97;stroke-linecap:round;stroke-linejoin:round;stroke-dasharray:none;stroke-opacity:1;paint-order:markers fill stroke"
         d="m 45.868724,34.783784 c 0,0 19.30309,-10.129344 31.916989,7.071426 12.613899,17.200774 12.613899,17.200774 12.613899,17.200774"
         id="path4"
         clip-path="url(#clipPath17)" /><path
         style="fill:none;fill-opacity:1;stroke:#ffffff;stroke-width:4.97;stroke-linecap:round;stroke-linejoin:round;stroke-dasharray:none;stroke-opacity:1;paint-order:markers fill stroke"
         d="m 45.868724,34.783784 c 0,0 19.30309,-10.129344 31.916989,7.071426 12.613899,17.200774 12.613899,17.200774 12.613899,17.200774"
         id="path19"
         clip-path="url(#clipPath17)"
         transform="matrix(-0.92514951,-0.37960292,-0.37960292,0.92514951,133.27372,26.273909)" /></g></g></svg>
